<svg width="53" height="54" viewBox="0 0 53 54" fill="none" xmlns="http://www.w3.org/2000/svg">
<path d="M7.77956 13.6518C9.13648 12.6881 11.182 12.8729 12.4003 13.8953L11.003 11.8315C9.87846 10.2019 10.2812 8.43882 11.8864 7.29472C13.4916 6.15502 18.0402 9.21915 18.0402 9.21915C16.9056 7.57341 17.1178 5.48763 18.7374 4.33327C20.357 3.18331 22.5916 3.58081 23.7262 5.22948L38.7678 26.8206L36.8508 45.7056L20.8522 39.7768L6.89757 18.7533C5.75285 17.0973 6.14837 14.8135 7.77956 13.6518Z" fill="#EF9645"/>
<path d="M4.65286 25.6633C4.65286 25.6633 3.01879 23.243 5.40206 21.5841C7.78244 19.9251 9.41508 22.3439 9.41508 22.3439L16.9951 33.5767C17.2563 33.1337 17.5422 32.6966 17.8612 32.2653L7.34072 16.6776C7.34072 16.6776 5.70809 14.2589 8.08991 12.5999C10.4703 10.941 12.1029 13.3597 12.1029 13.3597L21.9983 28.0233C22.3664 27.7182 22.7432 27.4117 23.1315 27.111L11.6598 10.1093C11.6598 10.1093 10.0271 7.69053 12.409 6.03157C14.7893 4.37262 16.422 6.79138 16.422 6.79138L27.8937 23.7902C28.3152 23.5276 28.7324 23.3002 29.151 23.0597L18.4285 7.17128C18.4285 7.17128 16.7959 4.75252 19.1762 3.09357C21.5566 1.43461 23.1893 3.85337 23.1893 3.85337L34.5268 20.6541L36.2503 23.2093C29.1077 28.1876 28.4278 37.5532 32.5087 43.6008C33.3243 44.8109 34.5152 43.9822 34.5152 43.9822C29.6173 36.7229 31.1128 28.5661 38.2568 23.5892L36.1507 12.8786C36.1507 12.8786 35.364 10.0565 38.1399 9.25561C40.9173 8.4562 41.7054 11.2783 41.7054 11.2783L44.1378 18.6182C45.1021 21.5283 46.1284 24.4282 47.4868 27.1711C51.3223 34.9158 49.0314 44.541 41.7993 49.5824C33.9104 55.0785 23.1257 53.0353 17.7154 45.0207L4.65286 25.6633Z" fill="#FFDC5D"/>
<path d="M18.0849 47.2339C12.3108 47.2339 6.47607 41.3051 6.47607 35.438C6.47607 34.6268 5.89144 33.9712 5.09317 33.9712C4.2949 33.9712 3.58902 34.6268 3.58902 35.438C3.58902 44.2387 9.42375 50.1675 18.0849 50.1675C18.8832 50.1675 19.5284 49.4502 19.5284 48.6391C19.5284 47.828 18.8832 47.2339 18.0849 47.2339Z" fill="#5DADEC"/>
<path d="M10.8673 50.106C6.53669 50.106 3.64963 47.1724 3.64963 42.772C3.64963 41.9608 3.00438 41.3052 2.2061 41.3052C1.40783 41.3052 0.762573 41.9608 0.762573 42.772C0.762573 48.6392 5.09316 53.0396 10.8673 53.0396C11.6656 53.0396 12.3108 52.3839 12.3108 51.5728C12.3108 50.7616 11.6656 50.106 10.8673 50.106ZM35.4073 3.16846C34.6105 3.16846 33.9638 3.82558 33.9638 4.63525C33.9638 5.44493 34.6105 6.10205 35.4073 6.10205C41.1814 6.10205 46.9555 11.3664 46.9555 17.8364C46.9555 18.6461 47.6022 19.3032 48.3991 19.3032C49.1959 19.3032 49.8426 18.6461 49.8426 17.8364C49.8426 9.74851 44.0685 3.16846 35.4073 3.16846Z" fill="#5DADEC"/>
<path d="M42.625 0.296387C41.8281 0.296387 41.1814 0.89191 41.1814 1.70159C41.1814 2.51127 41.8281 3.23 42.625 3.23C46.9555 3.23 49.782 6.49365 49.782 10.5024C49.782 11.3121 50.4879 11.9692 51.2861 11.9692C52.0844 11.9692 52.669 11.3121 52.669 10.5024C52.669 4.87429 48.3991 0.296387 42.625 0.296387Z" fill="#5DADEC"/>
</svg>
