<svg width="283" height="95" viewBox="0 0 283 95" fill="none" xmlns="http://www.w3.org/2000/svg">
<rect x="94" y="33" width="186" height="62" rx="12" fill="#003E6B"/>
<path d="M7.2 82.96C6.368 82.96 5.6 82.704 4.896 82.192C4.256 81.68 3.936 80.944 3.936 79.984V56.944C3.936 55.856 4.256 55.056 4.896 54.544C5.6 53.968 6.368 53.68 7.2 53.68C8.032 53.68 8.768 53.968 9.408 54.544C10.112 55.056 10.464 55.856 10.464 56.944V79.984C10.464 80.944 10.112 81.68 9.408 82.192C8.768 82.704 8.032 82.96 7.2 82.96ZM7.296 48.4C6.08 48.4 5.024 48.016 4.128 47.248C3.296 46.416 2.88 45.424 2.88 44.272C2.88 43.184 3.296 42.256 4.128 41.488C5.024 40.656 6.08 40.24 7.296 40.24C8.448 40.24 9.44 40.656 10.272 41.488C11.104 42.256 11.52 43.184 11.52 44.272C11.52 45.424 11.104 46.416 10.272 47.248C9.44 48.016 8.448 48.4 7.296 48.4ZM29.1255 82.96C26.6295 82.96 24.5815 82.192 22.9815 80.656C21.3815 79.12 20.5815 76.816 20.5815 73.744V61.552C20.5815 60.912 20.2615 60.592 19.6215 60.592H17.8935C17.0615 60.592 16.3575 60.336 15.7815 59.824C15.2055 59.248 14.9175 58.544 14.9175 57.712C14.9175 56.816 15.2055 56.08 15.7815 55.504C16.3575 54.928 17.0615 54.64 17.8935 54.64H19.6215C20.2615 54.64 20.5815 54.32 20.5815 53.68V45.616C20.5815 44.72 20.8695 44.016 21.4455 43.504C22.0855 42.928 22.8535 42.64 23.7495 42.64C24.7095 42.64 25.4775 42.928 26.0535 43.504C26.6935 44.016 27.0135 44.72 27.0135 45.616V53.68C27.0135 54.32 27.3335 54.64 27.9735 54.64H33.1575C33.9255 54.64 34.5975 54.928 35.1735 55.504C35.7495 56.08 36.0375 56.816 36.0375 57.712C36.0375 58.544 35.7495 59.248 35.1735 59.824C34.6615 60.336 33.9575 60.592 33.0615 60.592H27.9735C27.3335 60.592 27.0135 60.912 27.0135 61.552V72.88C27.0135 75.568 28.1015 76.912 30.2775 76.912C30.9175 76.912 31.5895 76.816 32.2935 76.624C32.9975 76.432 33.4775 76.336 33.7335 76.336C34.6295 76.336 35.3015 76.624 35.7495 77.2C36.2615 77.776 36.5175 78.448 36.5175 79.216C36.5175 79.792 36.3575 80.368 36.0375 80.944C35.7175 81.456 35.2055 81.84 34.5015 82.096C33.7975 82.352 32.9015 82.544 31.8135 82.672C30.7895 82.864 29.8935 82.96 29.1255 82.96ZM44.796 39.28C45.884 39.28 46.748 39.728 47.388 40.624C48.092 41.456 48.284 42.448 47.964 43.6L44.412 51.184C44.156 51.824 43.836 52.336 43.452 52.72C43.132 53.04 42.652 53.2 42.012 53.2C41.308 53.2 40.764 52.944 40.38 52.432C40.06 51.92 39.932 51.344 39.996 50.704L41.436 42.448C41.82 40.336 42.94 39.28 44.796 39.28ZM64.7303 82.96C62.8743 82.96 60.9863 82.704 59.0663 82.192C57.1463 81.744 55.4503 81.008 53.9783 79.984C53.2103 79.28 52.8263 78.512 52.8263 77.68C52.8263 76.848 53.1463 76.112 53.7863 75.472C54.4903 74.832 55.2583 74.512 56.0903 74.512C56.5383 74.512 56.9863 74.64 57.4343 74.896C58.5863 75.6 59.8983 76.176 61.3703 76.624C62.9063 77.008 64.3463 77.2 65.6903 77.2C66.9703 77.2 68.0583 76.976 68.9543 76.528C69.9143 76.08 70.3943 75.344 70.3943 74.32C70.3943 73.296 69.9463 72.528 69.0503 72.016C68.1543 71.504 66.6183 71.12 64.4423 70.864C63.5463 70.736 62.4583 70.576 61.1783 70.384C59.9623 70.192 58.7463 69.84 57.5303 69.328C56.3143 68.816 55.2903 68.048 54.4583 67.024C53.6263 66 53.2103 64.624 53.2103 62.896C53.2103 60.08 54.2343 57.84 56.2823 56.176C58.3943 54.512 61.2103 53.68 64.7303 53.68C66.7783 53.68 68.6983 53.936 70.4903 54.448C72.3463 54.96 73.7223 55.6 74.6183 56.368C75.3223 56.944 75.6743 57.616 75.6743 58.384C75.6743 59.216 75.3863 59.952 74.8103 60.592C74.2343 61.232 73.5303 61.552 72.6983 61.552C72.2503 61.552 71.8343 61.456 71.4503 61.264C70.4263 60.688 69.2743 60.272 67.9943 60.016C66.7783 59.696 65.5943 59.536 64.4423 59.536C63.0983 59.536 61.9463 59.76 60.9863 60.208C60.0903 60.592 59.6423 61.232 59.6423 62.128C59.6423 62.768 59.8983 63.344 60.4103 63.856C60.9863 64.304 62.4263 64.688 64.7303 65.008C65.8183 65.136 67.0343 65.328 68.3783 65.584C69.7863 65.84 71.1303 66.256 72.4103 66.832C73.6903 67.344 74.7463 68.176 75.5782 69.328C76.4103 70.48 76.8263 72.048 76.8263 74.032C76.8263 76.08 76.2503 77.776 75.0983 79.12C73.9463 80.4 72.4423 81.36 70.5863 82C68.7943 82.64 66.8423 82.96 64.7303 82.96Z" fill="#003E6B"/>
<path d="M105.649 82.96C104.817 82.96 104.049 82.64 103.345 82C102.641 81.424 102.289 80.72 102.289 79.888V48.592C102.289 47.12 102.769 45.936 103.729 45.04C104.753 44.08 105.937 43.6 107.281 43.6H122.257C123.345 43.6 124.113 43.888 124.561 44.464C125.073 45.04 125.329 45.744 125.329 46.576C125.329 47.408 125.041 48.112 124.465 48.688C123.889 49.264 123.153 49.552 122.257 49.552H111.505C109.841 49.552 109.009 50.384 109.009 52.048V57.52C109.009 59.184 109.777 60.016 111.313 60.016H121.393C122.481 60.016 123.249 60.336 123.697 60.976C124.209 61.552 124.465 62.224 124.465 62.992C124.465 63.76 124.177 64.464 123.601 65.104C123.025 65.68 122.289 65.968 121.393 65.968H111.313C109.777 65.968 109.009 66.768 109.009 68.368V79.888C109.009 80.72 108.657 81.424 107.953 82C107.313 82.64 106.545 82.96 105.649 82.96ZM134.792 82.96C133.96 82.96 133.192 82.704 132.488 82.192C131.848 81.68 131.528 80.944 131.528 79.984V43.504C131.528 42.416 131.848 41.616 132.488 41.104C133.192 40.528 133.96 40.24 134.792 40.24C135.624 40.24 136.36 40.528 137 41.104C137.704 41.616 138.056 42.416 138.056 43.504V57.232C139.08 56.144 140.424 55.28 142.088 54.64C143.816 54 145.416 53.68 146.888 53.68C150.216 53.68 153.032 54.832 155.336 57.136C157.704 59.44 158.888 62.832 158.888 67.312V79.984C158.888 80.944 158.536 81.68 157.832 82.192C157.128 82.704 156.392 82.96 155.624 82.96C154.792 82.96 154.024 82.704 153.32 82.192C152.68 81.68 152.359 80.944 152.359 79.984V67.888C152.359 65.072 151.72 62.992 150.44 61.648C149.224 60.304 147.592 59.632 145.544 59.632C142.792 59.632 140.84 60.496 139.688 62.224C138.6 63.888 138.056 65.744 138.056 67.792V79.984C138.056 80.944 137.704 81.68 137 82.192C136.36 82.704 135.624 82.96 134.792 82.96ZM178.505 82.96C175.753 82.96 173.289 82.32 171.113 81.04C168.937 79.76 167.241 78 166.025 75.76C164.809 73.456 164.201 70.896 164.201 68.08C164.201 65.328 164.809 62.864 166.025 60.688C167.241 58.512 168.937 56.816 171.113 55.6C173.289 54.32 175.753 53.68 178.505 53.68C180.297 53.68 181.897 54 183.305 54.64C184.713 55.216 185.929 55.984 186.953 56.944C187.081 56.048 187.465 55.376 188.105 54.928C188.745 54.416 189.449 54.16 190.217 54.16C191.049 54.16 191.785 54.448 192.425 55.024C193.129 55.536 193.481 56.336 193.481 57.424V79.984C193.481 80.944 193.129 81.68 192.425 82.192C191.785 82.704 191.049 82.96 190.217 82.96C189.385 82.96 188.617 82.704 187.913 82.192C187.273 81.68 186.953 80.944 186.953 79.984V79.6C185.929 80.624 184.713 81.424 183.305 82C181.897 82.64 180.297 82.96 178.505 82.96ZM179.081 77.008C181.513 77.008 183.433 76.208 184.841 74.608C186.249 72.944 186.953 70.768 186.953 68.08C186.953 65.52 186.249 63.472 184.841 61.936C183.433 60.4 181.513 59.632 179.081 59.632C176.585 59.632 174.569 60.4 173.033 61.936C171.497 63.472 170.729 65.52 170.729 68.08C170.729 70.768 171.497 72.944 173.033 74.608C174.569 76.208 176.585 77.008 179.081 77.008ZM207.243 67.792V79.984C207.243 80.944 206.891 81.68 206.187 82.192C205.547 82.704 204.811 82.96 203.979 82.96C203.147 82.96 202.379 82.704 201.675 82.192C201.035 81.68 200.715 80.944 200.715 79.984V57.424C200.715 56.336 201.035 55.536 201.675 55.024C202.379 54.448 203.147 54.16 203.979 54.16C204.811 54.16 205.547 54.448 206.187 55.024C206.891 55.536 207.243 56.336 207.243 57.424V57.808C208.139 56.592 209.291 55.6 210.699 54.832C212.171 54.064 213.707 53.68 215.307 53.68C216.075 53.68 216.843 53.776 217.611 53.968C218.379 54.16 218.955 54.544 219.339 55.12C219.723 55.696 219.915 56.336 219.915 57.04C219.915 57.872 219.627 58.64 219.051 59.344C218.539 59.984 217.771 60.304 216.747 60.304C216.299 60.304 215.819 60.24 215.307 60.112C214.859 59.984 214.283 59.92 213.579 59.92C211.723 59.92 210.187 60.624 208.971 62.032C207.819 63.44 207.243 65.36 207.243 67.792ZM227.606 82.96C226.774 82.96 226.006 82.704 225.302 82.192C224.662 81.68 224.342 80.944 224.342 79.984V56.944C224.342 55.856 224.662 55.056 225.302 54.544C226.006 53.968 226.774 53.68 227.606 53.68C228.438 53.68 229.174 53.968 229.814 54.544C230.518 55.056 230.87 55.856 230.87 56.944V79.984C230.87 80.944 230.518 81.68 229.814 82.192C229.174 82.704 228.438 82.96 227.606 82.96ZM227.702 48.4C226.486 48.4 225.43 48.016 224.534 47.248C223.702 46.416 223.286 45.424 223.286 44.272C223.286 43.184 223.702 42.256 224.534 41.488C225.43 40.656 226.486 40.24 227.702 40.24C228.854 40.24 229.846 40.656 230.678 41.488C231.51 42.256 231.926 43.184 231.926 44.272C231.926 45.424 231.51 46.416 230.678 47.248C229.846 48.016 228.854 48.4 227.702 48.4ZM251.068 82.96C248.316 82.96 245.852 82.32 243.676 81.04C241.5 79.76 239.804 78 238.588 75.76C237.372 73.456 236.764 70.896 236.764 68.08C236.764 65.328 237.372 62.864 238.588 60.688C239.804 58.512 241.5 56.816 243.676 55.6C245.852 54.32 248.316 53.68 251.068 53.68C252.86 53.68 254.46 53.968 255.868 54.544C257.276 55.12 258.492 55.92 259.516 56.944V43.504C259.516 42.416 259.836 41.616 260.476 41.104C261.18 40.528 261.948 40.24 262.78 40.24C263.612 40.24 264.348 40.528 264.988 41.104C265.692 41.616 266.044 42.416 266.044 43.504V79.984C266.044 80.944 265.692 81.68 264.988 82.192C264.348 82.704 263.612 82.96 262.78 82.96C261.948 82.96 261.18 82.704 260.476 82.192C259.836 81.68 259.516 80.944 259.516 79.984V79.6C258.492 80.624 257.276 81.424 255.868 82C254.46 82.64 252.86 82.96 251.068 82.96ZM251.644 77.008C254.076 77.008 255.996 76.208 257.404 74.608C258.812 72.944 259.516 70.768 259.516 68.08C259.516 65.52 258.812 63.472 257.404 61.936C255.996 60.4 254.076 59.632 251.644 59.632C249.148 59.632 247.132 60.4 245.596 61.936C244.06 63.472 243.292 65.52 243.292 68.08C243.292 70.768 244.06 72.944 245.596 74.608C247.132 76.208 249.148 77.008 251.644 77.008Z" fill="white"/>
</svg>
